<svg width="14" height="8" viewBox="0 0 14 8" fill="none" xmlns="http://www.w3.org/2000/svg">
<path fill-rule="evenodd" clip-rule="evenodd" d="M13.3538 0.646161C13.4004 0.692607 13.4373 0.747782 13.4626 0.808527C13.4878 0.869273 13.5007 0.934394 13.5007 1.00016C13.5007 1.06593 13.4878 1.13105 13.4626 1.19179C13.4373 1.25254 13.4004 1.30772 13.3538 1.35416L7.35384 7.35416C7.30739 7.40073 7.25222 7.43767 7.19147 7.46287C7.13073 7.48808 7.06561 7.50106 6.99984 7.50106C6.93407 7.50106 6.86895 7.48808 6.80821 7.46287C6.74746 7.43767 6.69228 7.40073 6.64584 7.35416L0.64584 1.35416C0.551953 1.26027 0.499208 1.13294 0.499208 1.00016C0.499208 0.867385 0.551953 0.740048 0.64584 0.646161C0.739726 0.552274 0.867064 0.499529 0.99984 0.499529C1.13262 0.499529 1.25995 0.552274 1.35384 0.646161L6.99984 6.29316L12.6458 0.646161C12.6923 0.599598 12.7475 0.562655 12.8082 0.537448C12.869 0.512242 12.9341 0.499268 12.9998 0.499268C13.0656 0.499268 13.1307 0.512242 13.1915 0.537448C13.2522 0.562655 13.3074 0.599598 13.3538 0.646161Z" fill="#979797"/>
</svg>
