<svg width="44" height="44" viewBox="0 0 44 44" fill="none" xmlns="http://www.w3.org/2000/svg">
<circle cx="22" cy="22" r="22" fill="#00B9AC"/>
<mask id="path-2-outside-1_16_1641" maskUnits="userSpaceOnUse" x="15.5009" y="13.5009" width="10" height="16" fill="black">
<rect fill="white" x="15.5009" y="13.5009" width="10" height="16"/>
<path fill-rule="evenodd" clip-rule="evenodd" d="M24.354 28.354C24.3076 28.4005 24.2524 28.4375 24.1917 28.4627C24.1309 28.4879 24.0658 28.5009 24 28.5009C23.9343 28.5009 23.8691 28.4879 23.8084 28.4627C23.7476 28.4375 23.6925 28.4005 23.646 28.354L17.646 22.354C17.5995 22.3075 17.5625 22.2523 17.5373 22.1916C17.5121 22.1308 17.4991 22.0657 17.4991 22C17.4991 21.9342 17.5121 21.8691 17.5373 21.8083C17.5625 21.7476 17.5995 21.6924 17.646 21.646L23.646 15.646C23.7399 15.5521 23.8672 15.4993 24 15.4993C24.1328 15.4993 24.2601 15.5521 24.354 15.646C24.4479 15.7398 24.5007 15.8672 24.5007 16C24.5007 16.1327 24.4479 16.2601 24.354 16.354L18.707 22L24.354 27.646C24.4006 27.6924 24.4375 27.7476 24.4627 27.8083C24.4879 27.8691 24.5009 27.9342 24.5009 28C24.5009 28.0657 24.4879 28.1308 24.4627 28.1916C24.4375 28.2523 24.4006 28.3075 24.354 28.354Z"/>
</mask>
<path fill-rule="evenodd" clip-rule="evenodd" d="M24.354 28.354C24.3076 28.4005 24.2524 28.4375 24.1917 28.4627C24.1309 28.4879 24.0658 28.5009 24 28.5009C23.9343 28.5009 23.8691 28.4879 23.8084 28.4627C23.7476 28.4375 23.6925 28.4005 23.646 28.354L17.646 22.354C17.5995 22.3075 17.5625 22.2523 17.5373 22.1916C17.5121 22.1308 17.4991 22.0657 17.4991 22C17.4991 21.9342 17.5121 21.8691 17.5373 21.8083C17.5625 21.7476 17.5995 21.6924 17.646 21.646L23.646 15.646C23.7399 15.5521 23.8672 15.4993 24 15.4993C24.1328 15.4993 24.2601 15.5521 24.354 15.646C24.4479 15.7398 24.5007 15.8672 24.5007 16C24.5007 16.1327 24.4479 16.2601 24.354 16.354L18.707 22L24.354 27.646C24.4006 27.6924 24.4375 27.7476 24.4627 27.8083C24.4879 27.8691 24.5009 27.9342 24.5009 28C24.5009 28.0657 24.4879 28.1308 24.4627 28.1916C24.4375 28.2523 24.4006 28.3075 24.354 28.354Z" fill="white"/>
<path d="M23.646 28.354L24.354 27.6477L24.3531 27.6469L23.646 28.354ZM17.646 22.354L18.3531 21.6469L18.3522 21.646L17.646 22.354ZM17.646 21.646L18.3522 22.354L18.3531 22.3531L17.646 21.646ZM23.646 15.646L22.9389 14.9389L23.646 15.646ZM24.354 16.354L25.0611 17.0611L25.0611 17.0611L24.354 16.354ZM18.707 22L18 21.2928L17.2927 22L18 22.7071L18.707 22ZM24.354 27.646L23.647 28.3531L23.6478 28.354L24.354 27.646ZM23.646 27.6477C23.6925 27.6012 23.7476 27.5642 23.8084 27.539L24.5749 29.3863C24.7572 29.3107 24.9227 29.1999 25.062 29.0602L23.646 27.6477ZM23.8084 27.539C23.8691 27.5138 23.9343 27.5009 24 27.5009V29.5009C24.1973 29.5009 24.3927 29.4619 24.5749 29.3863L23.8084 27.539ZM24 27.5009C24.0658 27.5009 24.1309 27.5138 24.1917 27.539L23.4251 29.3863C23.6074 29.4619 23.8027 29.5009 24 29.5009V27.5009ZM24.1917 27.539C24.2524 27.5642 24.3076 27.6012 24.354 27.6477L22.938 29.0602C23.0774 29.1999 23.2429 29.3107 23.4251 29.3863L24.1917 27.539ZM24.3531 27.6469L18.3531 21.6469L16.9389 23.0611L22.9389 29.0611L24.3531 27.6469ZM18.3522 21.646C18.3988 21.6924 18.4357 21.7476 18.4609 21.8083L16.6137 22.5749C16.6893 22.7571 16.8001 22.9226 16.9398 23.062L18.3522 21.646ZM18.4609 21.8083C18.4862 21.8691 18.4991 21.9342 18.4991 22H16.4991C16.4991 22.1973 16.5381 22.3926 16.6137 22.5749L18.4609 21.8083ZM18.4991 22C18.4991 22.0657 18.4862 22.1309 18.4609 22.1916L16.6137 21.4251C16.5381 21.6073 16.4991 21.8027 16.4991 22H18.4991ZM18.4609 22.1916C18.4357 22.2523 18.3988 22.3075 18.3522 22.354L16.9398 20.938C16.8001 21.0773 16.6893 21.2428 16.6137 21.4251L18.4609 22.1916ZM18.3531 22.3531L24.3531 16.3531L22.9389 14.9389L16.9389 20.9389L18.3531 22.3531ZM24.3531 16.3531C24.2595 16.4467 24.1325 16.4993 24 16.4993V14.4993C23.602 14.4993 23.2203 14.6574 22.9389 14.9389L24.3531 16.3531ZM24 16.4993C23.8676 16.4993 23.7406 16.4467 23.6469 16.3531L25.0611 14.9389C24.7797 14.6574 24.398 14.4993 24 14.4993V16.4993ZM23.6469 16.3531C23.5533 16.2594 23.5007 16.1324 23.5007 16H25.5007C25.5007 15.602 25.3426 15.2203 25.0611 14.9389L23.6469 16.3531ZM23.5007 16C23.5007 15.8675 23.5533 15.7405 23.6469 15.6469L25.0611 17.0611C25.3426 16.7796 25.5007 16.398 25.5007 16H23.5007ZM23.647 15.6468L18 21.2928L19.4141 22.7071L25.0611 17.0611L23.647 15.6468ZM18 22.7071L23.647 28.3531L25.0611 26.9388L19.4141 21.2928L18 22.7071ZM23.6478 28.354C23.6012 28.3075 23.5643 28.2523 23.5391 28.1916L25.3864 27.4251C25.3108 27.2428 25.1999 27.0773 25.0602 26.938L23.6478 28.354ZM23.5391 28.1916C23.5139 28.1308 23.5009 28.0657 23.5009 28H25.5009C25.5009 27.8027 25.462 27.6073 25.3864 27.4251L23.5391 28.1916ZM23.5009 28C23.5009 27.9342 23.5139 27.8691 23.5391 27.8083L25.3864 28.5749C25.462 28.3926 25.5009 28.1973 25.5009 28H23.5009ZM23.5391 27.8083C23.5643 27.7476 23.6012 27.6924 23.6478 27.646L25.0602 29.062C25.1999 28.9226 25.3108 28.7571 25.3864 28.5749L23.5391 27.8083Z" fill="white" mask="url(#path-2-outside-1_16_1641)"/>
</svg>
