<svg width="16" height="17" viewBox="0 0 16 17" fill="none" xmlns="http://www.w3.org/2000/svg">
<path fill-rule="evenodd" clip-rule="evenodd" d="M8.14599 5.14604C8.09943 5.19248 8.06248 5.24766 8.03728 5.30841C8.01207 5.36915 7.9991 5.43427 7.9991 5.50004C7.9991 5.56581 8.01207 5.63093 8.03728 5.69167C8.06248 5.75242 8.09943 5.80759 8.14599 5.85404L10.793 8.50004L8.14599 11.146C8.0995 11.1925 8.06263 11.2477 8.03747 11.3085C8.01231 11.3692 7.99936 11.4343 7.99936 11.5C7.99936 11.5658 8.01231 11.6309 8.03747 11.6916C8.06263 11.7524 8.0995 11.8076 8.14599 11.854C8.19248 11.9005 8.24767 11.9374 8.30841 11.9626C8.36915 11.9877 8.43425 12.0007 8.49999 12.0007C8.56574 12.0007 8.63084 11.9877 8.69157 11.9626C8.75231 11.9374 8.8075 11.9005 8.85399 11.854L11.854 8.85404C11.9006 8.80759 11.9375 8.75242 11.9627 8.69167C11.9879 8.63093 12.0009 8.56581 12.0009 8.50004C12.0009 8.43427 11.9879 8.36915 11.9627 8.30841C11.9375 8.24766 11.9006 8.19248 11.854 8.14604L8.85399 5.14604C8.80755 5.09948 8.75237 5.06253 8.69162 5.03733C8.63088 5.01212 8.56576 4.99915 8.49999 4.99915C8.43422 4.99915 8.3691 5.01212 8.30836 5.03733C8.24761 5.06253 8.19244 5.09948 8.14599 5.14604Z" fill="#0060FF"/>
<path fill-rule="evenodd" clip-rule="evenodd" d="M11.5 8.5C11.5 8.36739 11.4473 8.24021 11.3536 8.14645C11.2598 8.05268 11.1326 8 11 8H4.5C4.36739 8 4.24021 8.05268 4.14645 8.14645C4.05268 8.24021 4 8.36739 4 8.5C4 8.63261 4.05268 8.75979 4.14645 8.85355C4.24021 8.94732 4.36739 9 4.5 9H11C11.1326 9 11.2598 8.94732 11.3536 8.85355C11.4473 8.75979 11.5 8.63261 11.5 8.5Z" fill="#0060FF"/>
</svg>
