<svg width="44" height="44" viewBox="0 0 44 44" fill="none" xmlns="http://www.w3.org/2000/svg">
<circle cx="22" cy="22" r="22" transform="rotate(-180 22 22)" fill="#00B9AC"/>
<mask id="path-2-outside-1_16_1642" maskUnits="userSpaceOnUse" x="18.4991" y="14.4991" width="10" height="16" fill="black">
<rect fill="white" x="18.4991" y="14.4991" width="10" height="16"/>
<path fill-rule="evenodd" clip-rule="evenodd" d="M19.646 15.646C19.6924 15.5995 19.7476 15.5625 19.8083 15.5373C19.8691 15.5121 19.9342 15.4991 20 15.4991C20.0657 15.4991 20.1309 15.5121 20.1916 15.5373C20.2524 15.5625 20.3075 15.5995 20.354 15.646L26.354 21.646C26.4005 21.6925 26.4375 21.7477 26.4627 21.8084C26.4879 21.8692 26.5009 21.9343 26.5009 22C26.5009 22.0658 26.4879 22.1309 26.4627 22.1917C26.4375 22.2524 26.4005 22.3076 26.354 22.354L20.354 28.354C20.2601 28.4479 20.1328 28.5007 20 28.5007C19.8672 28.5007 19.7399 28.4479 19.646 28.354C19.5521 28.2602 19.4993 28.1328 19.4993 28C19.4993 27.8673 19.5521 27.7399 19.646 27.646L25.293 22L19.646 16.354C19.5994 16.3076 19.5625 16.2524 19.5373 16.1917C19.5121 16.1309 19.4991 16.0658 19.4991 16C19.4991 15.9343 19.5121 15.8692 19.5373 15.8084C19.5625 15.7477 19.5994 15.6925 19.646 15.646Z"/>
</mask>
<path fill-rule="evenodd" clip-rule="evenodd" d="M19.646 15.646C19.6924 15.5995 19.7476 15.5625 19.8083 15.5373C19.8691 15.5121 19.9342 15.4991 20 15.4991C20.0657 15.4991 20.1309 15.5121 20.1916 15.5373C20.2524 15.5625 20.3075 15.5995 20.354 15.646L26.354 21.646C26.4005 21.6925 26.4375 21.7477 26.4627 21.8084C26.4879 21.8692 26.5009 21.9343 26.5009 22C26.5009 22.0658 26.4879 22.1309 26.4627 22.1917C26.4375 22.2524 26.4005 22.3076 26.354 22.354L20.354 28.354C20.2601 28.4479 20.1328 28.5007 20 28.5007C19.8672 28.5007 19.7399 28.4479 19.646 28.354C19.5521 28.2602 19.4993 28.1328 19.4993 28C19.4993 27.8673 19.5521 27.7399 19.646 27.646L25.293 22L19.646 16.354C19.5994 16.3076 19.5625 16.2524 19.5373 16.1917C19.5121 16.1309 19.4991 16.0658 19.4991 16C19.4991 15.9343 19.5121 15.8692 19.5373 15.8084C19.5625 15.7477 19.5994 15.6925 19.646 15.646Z" fill="white"/>
<path d="M20.354 15.646L19.646 16.3523L19.6469 16.3531L20.354 15.646ZM26.354 21.646L25.6469 22.3531L25.6478 22.354L26.354 21.646ZM26.354 22.354L25.6478 21.646L25.6469 21.6469L26.354 22.354ZM20.354 28.354L21.0611 29.0611L20.354 28.354ZM19.646 27.646L18.9389 26.9389L18.9389 26.9389L19.646 27.646ZM25.293 22L26 22.7072L26.7073 22L26 21.2929L25.293 22ZM19.646 16.354L20.353 15.6469L20.3522 15.646L19.646 16.354ZM20.354 16.3523C20.3075 16.3988 20.2524 16.4358 20.1916 16.461L19.4251 14.6137C19.2428 14.6893 19.0773 14.8001 18.938 14.9398L20.354 16.3523ZM20.1916 16.461C20.1309 16.4862 20.0657 16.4991 20 16.4991V14.4991C19.8027 14.4991 19.6073 14.5381 19.4251 14.6137L20.1916 16.461ZM20 16.4991C19.9342 16.4991 19.8691 16.4862 19.8083 16.461L20.5749 14.6137C20.3926 14.5381 20.1973 14.4991 20 14.4991V16.4991ZM19.8083 16.461C19.7476 16.4358 19.6924 16.3988 19.646 16.3523L21.062 14.9398C20.9226 14.8001 20.7571 14.6893 20.5749 14.6137L19.8083 16.461ZM19.6469 16.3531L25.6469 22.3531L27.0611 20.9389L21.0611 14.9389L19.6469 16.3531ZM25.6478 22.354C25.6012 22.3076 25.5643 22.2524 25.5391 22.1917L27.3863 21.4251C27.3107 21.2429 27.1999 21.0774 27.0602 20.938L25.6478 22.354ZM25.5391 22.1917C25.5138 22.1309 25.5009 22.0658 25.5009 22H27.5009C27.5009 21.8027 27.4619 21.6074 27.3863 21.4251L25.5391 22.1917ZM25.5009 22C25.5009 21.9343 25.5138 21.8691 25.5391 21.8084L27.3863 22.5749C27.4619 22.3927 27.5009 22.1973 27.5009 22H25.5009ZM25.5391 21.8084C25.5643 21.7477 25.6012 21.6925 25.6478 21.646L27.0602 23.062C27.1999 22.9227 27.3107 22.7572 27.3863 22.5749L25.5391 21.8084ZM25.6469 21.6469L19.6469 27.6469L21.0611 29.0611L27.0611 23.0611L25.6469 21.6469ZM19.6469 27.6469C19.7405 27.5533 19.8675 27.5007 20 27.5007V29.5007C20.398 29.5007 20.7797 29.3426 21.0611 29.0611L19.6469 27.6469ZM20 27.5007C20.1324 27.5007 20.2594 27.5533 20.3531 27.6469L18.9389 29.0611C19.2203 29.3426 19.602 29.5007 20 29.5007V27.5007ZM20.3531 27.6469C20.4467 27.7406 20.4993 27.8676 20.4993 28H18.4993C18.4993 28.398 18.6574 28.7797 18.9389 29.0611L20.3531 27.6469ZM20.4993 28C20.4993 28.1325 20.4467 28.2595 20.3531 28.3531L18.9389 26.9389C18.6574 27.2204 18.4993 27.602 18.4993 28H20.4993ZM20.353 28.3532L26 22.7072L24.5859 21.2929L18.9389 26.9389L20.353 28.3532ZM26 21.2929L20.353 15.6469L18.9389 17.0612L24.5859 22.7072L26 21.2929ZM20.3522 15.646C20.3988 15.6925 20.4357 15.7477 20.4609 15.8084L18.6136 16.5749C18.6892 16.7572 18.8001 16.9227 18.9398 17.062L20.3522 15.646ZM20.4609 15.8084C20.4861 15.8692 20.4991 15.9343 20.4991 16H18.4991C18.4991 16.1973 18.538 16.3927 18.6136 16.5749L20.4609 15.8084ZM20.4991 16C20.4991 16.0658 20.4861 16.1309 20.4609 16.1917L18.6136 15.4251C18.538 15.6074 18.4991 15.8027 18.4991 16H20.4991ZM20.4609 16.1917C20.4357 16.2524 20.3988 16.3076 20.3522 16.354L18.9398 14.938C18.8001 15.0774 18.6892 15.2429 18.6136 15.4251L20.4609 16.1917Z" fill="white" mask="url(#path-2-outside-1_16_1642)"/>
</svg>
