<svg width="36" height="36" viewBox="0 0 36 36" fill="none" xmlns="http://www.w3.org/2000/svg">
<circle cx="18" cy="18" r="18" transform="rotate(-180 18 18)" fill="#00B9AC"/>
<path d="M18.0041 9.66663C20.2374 9.66663 22.0735 11.4216 22.1667 13.6452H22.1449C22.1475 13.7099 22.1351 13.7742 22.1086 13.8333H22.2387C23.2529 13.8333 24.3149 14.5362 24.7407 16.2331L24.787 16.4334L25.4277 21.5956C25.8888 24.8881 24.0875 26.2727 21.6302 26.3313L21.4654 26.3333H14.5571C12.0598 26.3333 10.1355 25.4233 10.5586 21.8196L10.5874 21.5956L11.2355 16.4334C11.5551 14.6059 12.628 13.8852 13.6618 13.836L13.7764 13.8333H13.8416C13.8306 13.7711 13.8306 13.7074 13.8416 13.6452C13.9348 11.4216 15.7708 9.66663 18.0041 9.66663ZM15.5808 16.6077C15.1741 16.6077 14.8443 16.9471 14.8443 17.3657C14.8443 17.7844 15.1741 18.1238 15.5808 18.1238C15.9876 18.1238 16.3173 17.7844 16.3173 17.3657L16.3116 17.2707C16.2661 16.8969 15.9563 16.6077 15.5808 16.6077ZM20.4048 16.6077C19.9981 16.6077 19.6684 16.9471 19.6684 17.3657C19.6684 17.7844 19.9981 18.1238 20.4048 18.1238C20.8116 18.1238 21.1413 17.7844 21.1413 17.3657C21.1413 16.9471 20.8116 16.6077 20.4048 16.6077ZM17.9715 10.7519C16.368 10.7519 15.0682 12.0473 15.0682 13.6452C15.0792 13.7074 15.0792 13.7711 15.0682 13.8333H20.911C20.8878 13.7732 20.8755 13.7096 20.8747 13.6452C20.8747 12.0473 19.5749 10.7519 17.9715 10.7519Z" fill="white"/>
</svg>
