<svg width="50" height="50" viewBox="0 0 50 50" fill="none" xmlns="http://www.w3.org/2000/svg">
<circle cx="25" cy="25" r="25" fill="#00B9AC"/>
<path d="M29.8224 9.91669C30.4416 9.91524 30.9311 10.3962 30.9325 11.0376L30.934 12.1308C34.9512 12.4456 37.6048 15.183 37.6091 19.3809L37.625 31.6685C37.6307 36.2454 34.7554 39.0615 30.1464 39.0688L18.8882 39.0834C14.308 39.0892 11.3966 36.206 11.3909 31.616L11.375 19.4727C11.3693 15.2471 13.9293 12.5171 17.9465 12.1483L17.9451 11.0551C17.9436 10.4137 18.4188 9.93127 19.0523 9.93127C19.6859 9.92981 20.161 10.4108 20.1624 11.0522L20.1639 12.0725L28.7166 12.0608L28.7152 11.0405C28.7137 10.3992 29.1889 9.91815 29.8224 9.91669ZM30.4099 30.6132H30.3955C29.7331 30.6292 29.2018 31.1846 29.2162 31.8551C29.2177 32.5256 29.7519 33.078 30.4142 33.0926C31.0895 33.0911 31.6366 32.5358 31.6352 31.8507C31.6352 31.1656 31.0866 30.6132 30.4099 30.6132ZM18.5455 30.6147C17.8832 30.6438 17.3648 31.1992 17.3662 31.8697C17.3965 32.5402 17.9436 33.0649 18.606 33.0343C19.2553 33.0051 19.7722 32.4498 19.742 31.7793C19.7276 31.1234 19.1934 30.6132 18.5455 30.6147ZM24.4777 30.6074C23.8154 30.638 23.2984 31.1919 23.2984 31.8624C23.3287 32.5329 23.8758 33.0562 24.5382 33.027C25.1861 32.9964 25.7044 32.4425 25.6742 31.7705C25.6598 31.1161 25.1256 30.6059 24.4777 30.6074ZM18.5383 25.3673C17.876 25.3964 17.359 25.9518 17.3605 26.6223C17.3893 27.2928 17.9379 27.8175 18.6002 27.7869C19.2481 27.7578 19.765 27.2024 19.7348 26.5319C19.7204 25.876 19.1877 25.3658 18.5383 25.3673ZM24.4719 25.3163C23.8096 25.3454 23.2912 25.9008 23.2927 26.5713C23.3215 27.2418 23.8701 27.765 24.5324 27.7359C25.1803 27.7053 25.6972 27.1514 25.6684 26.4809C25.6526 25.825 25.1199 25.3148 24.4719 25.3163ZM30.4041 25.3236C29.7418 25.3381 29.2234 25.8775 29.2249 26.548V26.564C29.2393 27.2345 29.7864 27.7432 30.4502 27.7286C31.0981 27.7126 31.615 27.1572 31.6006 26.4867C31.5704 25.8454 31.0506 25.3221 30.4041 25.3236ZM28.7195 14.3055L20.1668 14.3172L20.1682 15.4964C20.1682 16.1246 19.6945 16.6202 19.061 16.6202C18.4274 16.6217 17.9508 16.1275 17.9508 15.4993L17.9494 14.377C15.1417 14.6583 13.5881 16.3083 13.5924 19.4698L13.5938 19.9231L35.3932 19.894V19.3838C35.3313 16.25 33.759 14.6058 30.9369 14.3609L30.9383 15.4833C30.9383 16.1101 30.4502 16.6071 29.8311 16.6071C29.1975 16.6086 28.7209 16.113 28.7209 15.4862L28.7195 14.3055Z" fill="white"/>
</svg>
