<svg width="24" height="24" viewBox="0 0 24 24" fill="none" xmlns="http://www.w3.org/2000/svg">
<circle cx="12" cy="12" r="12" fill="#00B9AC"/>
<g clip-path="url(#clip0_96_253)">
<path d="M10 18.1344C10 17.8881 10.0485 17.6443 10.1427 17.4168C10.237 17.1894 10.3751 16.9827 10.5492 16.8085C10.7233 16.6344 10.93 16.4963 11.1575 16.4021C11.385 16.3079 11.6288 16.2594 11.875 16.2594C12.1212 16.2594 12.365 16.3079 12.5925 16.4021C12.82 16.4963 13.0267 16.6344 13.2008 16.8085C13.3749 16.9827 13.513 17.1894 13.6073 17.4168C13.7015 17.6443 13.75 17.8881 13.75 18.1344C13.75 18.6317 13.5525 19.1086 13.2008 19.4602C12.8492 19.8118 12.3723 20.0094 11.875 20.0094C11.3777 20.0094 10.9008 19.8118 10.5492 19.4602C10.1975 19.1086 10 18.6317 10 18.1344ZM10.1838 6.875C10.1588 6.63845 10.1838 6.3993 10.2573 6.17305C10.3307 5.94681 10.4509 5.73853 10.61 5.56173C10.7691 5.38492 10.9636 5.24355 11.1809 5.14678C11.3982 5.05001 11.6334 5 11.8713 5C12.1091 5 12.3443 5.05001 12.5616 5.14678C12.7789 5.24355 12.9734 5.38492 13.1325 5.56173C13.2916 5.73853 13.4118 5.94681 13.4852 6.17305C13.5587 6.3993 13.5837 6.63845 13.5587 6.875L12.9025 13.4506C12.8758 13.7056 12.7557 13.9416 12.5653 14.1131C12.3748 14.2847 12.1276 14.3796 11.8713 14.3796C11.6149 14.3796 11.3677 14.2847 11.1772 14.1131C10.9868 13.9416 10.8667 13.7056 10.84 13.4506L10.1838 6.875Z" fill="white"/>
</g>
<defs>
<clipPath id="clip0_96_253">
<rect width="16" height="16" fill="white" transform="translate(4 4)"/>
</clipPath>
</defs>
</svg>
