<svg width="50" height="50" viewBox="0 0 50 50" fill="none" xmlns="http://www.w3.org/2000/svg">
<circle cx="25" cy="25" r="25" fill="#00B9AC"/>
<path d="M24.4257 28.2036C29.4295 28.2036 33.702 28.9969 33.702 32.1713C33.702 35.3445 29.4569 36.1666 24.4257 36.1666C19.4219 36.1666 15.1493 35.3734 15.1493 32.2002C15.1493 29.0258 19.3944 28.2036 24.4257 28.2036ZM32.4262 26.2921C34.3391 26.2566 36.3958 26.5193 37.1557 26.7058C38.7658 27.0223 39.8248 27.6685 40.2635 28.6076C40.6344 29.3785 40.6344 30.273 40.2635 31.0426C39.5924 32.4992 37.4287 32.9667 36.5877 33.0875C36.4141 33.1138 36.2743 32.9628 36.2926 32.7881C36.7222 28.7521 33.305 26.8385 32.4209 26.3985C32.3831 26.3788 32.3752 26.3486 32.3791 26.3302C32.3818 26.317 32.3974 26.296 32.4262 26.2921ZM16.5748 26.2926C16.6036 26.2966 16.6179 26.3176 16.6205 26.3294C16.6245 26.3491 16.6166 26.378 16.5801 26.399C15.6947 26.839 12.2775 28.7526 12.7071 32.7873C12.7254 32.9633 12.5869 33.113 12.4133 33.0881C11.5723 32.9672 9.40864 32.4997 8.73746 31.0431C8.36531 30.2722 8.36531 29.3791 8.73746 28.6081C9.1762 27.669 10.2339 27.0229 11.8439 26.705C12.6052 26.5198 14.6605 26.2572 16.5748 26.2926ZM24.4257 12.8333C27.8325 12.8333 30.5642 15.5783 30.5642 19.0062C30.5642 22.4328 27.8325 25.1804 24.4257 25.1804C21.0189 25.1804 18.2871 22.4328 18.2871 19.0062C18.2871 15.5783 21.0189 12.8333 24.4257 12.8333ZM32.7591 13.8627C36.0497 13.8627 38.6339 16.9768 37.7538 20.4454C37.1597 22.7806 35.009 24.3317 32.6129 24.2687C32.3726 24.2621 32.1363 24.2398 31.9078 24.2004C31.7419 24.1715 31.6583 23.9837 31.7524 23.8445C32.6664 22.4917 33.1874 20.8644 33.1874 19.1176C33.1874 17.2946 32.6181 15.5951 31.6296 14.2016C31.5983 14.1583 31.5748 14.0913 31.6061 14.0414C31.6322 14.0006 31.6805 13.9796 31.7262 13.9691C32.0592 13.9008 32.4013 13.8627 32.7591 13.8627ZM16.2399 13.8626C16.5977 13.8626 16.9398 13.9007 17.2741 13.969C17.3185 13.9795 17.3681 14.0018 17.3942 14.0412C17.4243 14.0911 17.4021 14.1581 17.3707 14.2015C16.3822 15.595 15.8129 17.2945 15.8129 19.1175C15.8129 20.8643 16.3339 22.4916 17.248 23.8443C17.342 23.9836 17.2584 24.1714 17.0926 24.2003C16.8628 24.241 16.6277 24.262 16.3875 24.2686C13.9913 24.3316 11.8407 22.7805 11.2465 20.4453C10.3651 16.9766 12.9493 13.8626 16.2399 13.8626Z" fill="white"/>
<path d="M24.4257 28.2036C29.4295 28.2036 33.702 28.9969 33.702 32.1713C33.702 35.3445 29.4569 36.1666 24.4257 36.1666C19.4219 36.1666 15.1493 35.3734 15.1493 32.2002C15.1493 29.0258 19.3944 28.2036 24.4257 28.2036ZM24.4257 12.8333C27.8325 12.8333 30.5642 15.5783 30.5642 19.0062C30.5642 22.4328 27.8325 25.1804 24.4257 25.1804C21.0188 25.1804 18.2871 22.4328 18.2871 19.0062C18.2871 15.5783 21.0188 12.8333 24.4257 12.8333Z" fill="white"/>
</svg>
