<svg width="25" height="26" viewBox="0 0 25 26" fill="none" xmlns="http://www.w3.org/2000/svg">
<g clip-path="url(#clip0_38_328)">
<path d="M24.9755 7.41954C24.9169 6.08616 24.7021 5.16947 24.3944 4.37515C24.0769 3.532 23.5885 2.77713 22.9487 2.1496C22.3235 1.51231 21.5666 1.0171 20.7363 0.703432C19.9404 0.394551 19.032 0.178928 17.7036 0.120139C16.3653 0.0563711 15.9405 0.041626 12.5463 0.041626C9.15207 0.041626 8.72722 0.0563711 7.39391 0.11516C6.06557 0.173949 5.15234 0.389763 4.36121 0.698453C3.52105 1.0171 2.76903 1.50733 2.14387 2.1496C1.50898 2.77713 1.01584 3.53698 0.703162 4.37036C0.395446 5.16947 0.180637 6.08118 0.12207 7.41456C0.0585432 8.75789 0.0438538 9.18435 0.0438538 12.5914C0.0438538 15.9985 0.0585432 16.425 0.11711 17.7633C0.175677 19.0967 0.390677 20.0134 0.698392 20.8077C1.01584 21.6509 1.50898 22.4057 2.14387 23.0333C2.76903 23.6705 3.52601 24.1658 4.35625 24.4794C5.15234 24.7883 6.06061 25.0039 7.38915 25.0627C8.72226 25.1217 9.1473 25.1362 12.5415 25.1362C15.9357 25.1362 16.3606 25.1217 17.6939 25.0627C19.0222 25.0039 19.9355 24.7883 20.7266 24.4794C22.4067 23.8274 23.7351 22.494 24.3846 20.8077C24.6922 20.0086 24.9072 19.0967 24.9657 17.7633C25.0243 16.425 25.039 15.9985 25.039 12.5914C25.039 9.18435 25.034 8.75789 24.9755 7.41954ZM22.7242 17.6653C22.6704 18.8908 22.4653 19.5526 22.2943 19.9938C21.8743 21.0871 21.0099 21.9548 19.9208 22.3764C19.4812 22.548 18.8171 22.7539 17.601 22.8077C16.2824 22.8667 15.8869 22.8812 12.5512 22.8812C9.2156 22.8812 8.81517 22.8667 7.50132 22.8077C6.28038 22.7539 5.62107 22.548 5.18153 22.3764C4.63955 22.1754 4.14621 21.8567 3.74578 21.44C3.33066 21.0331 3.01322 20.5429 2.81291 19.9988C2.64198 19.5576 2.4369 18.8908 2.38329 17.6702C2.32453 16.3466 2.31003 15.9495 2.31003 12.6012C2.31003 9.25291 2.32453 8.85096 2.38329 7.53233C2.4369 6.30676 2.64198 5.64495 2.81291 5.20375C3.01322 4.65952 3.33066 4.16451 3.75074 3.76237C4.15594 3.34568 4.64432 3.02703 5.18649 2.82615C5.62603 2.65457 6.2903 2.44871 7.50628 2.39471C8.82489 2.33592 9.22056 2.32118 12.556 2.32118C15.8966 2.32118 16.2921 2.33592 17.6059 2.39471C18.8269 2.44871 19.4862 2.65457 19.9257 2.82615C20.4677 3.02703 20.961 3.34568 21.3615 3.76237C21.7766 4.1693 22.094 4.65952 22.2943 5.20375C22.4653 5.64495 22.6704 6.31155 22.7242 7.53233C22.7827 8.85594 22.7974 9.25291 22.7974 12.6012C22.7974 15.9495 22.7827 16.3417 22.7242 17.6653Z" fill="#979797"/>
<path d="M12.5464 6.1449C9.00089 6.1449 6.12424 9.03226 6.12424 12.5914C6.12424 16.1505 9.00089 19.0379 12.5464 19.0379C16.0921 19.0379 18.9685 16.1505 18.9685 12.5914C18.9685 9.03226 16.0921 6.1449 12.5464 6.1449ZM12.5464 16.773C10.2463 16.773 8.3805 14.9004 8.3805 12.5914C8.3805 10.2823 10.2463 8.40971 12.5464 8.40971C14.8467 8.40971 16.7123 10.2823 16.7123 12.5914C16.7123 14.9004 14.8467 16.773 12.5464 16.773Z" fill="#979797"/>
<path d="M20.7219 5.89009C20.7219 6.72118 20.0505 7.39505 19.2224 7.39505C18.3944 7.39505 17.7231 6.72118 17.7231 5.89009C17.7231 5.05881 18.3944 4.38513 19.2224 4.38513C20.0505 4.38513 20.7219 5.05881 20.7219 5.89009Z" fill="#979797"/>
</g>
<defs>
<clipPath id="clip0_38_328">
<rect width="25" height="25.0947" fill="white" transform="translate(0 0.041626)"/>
</clipPath>
</defs>
</svg>
