<svg width="36" height="36" viewBox="0 0 36 36" fill="none" xmlns="http://www.w3.org/2000/svg">
<circle cx="18" cy="18" r="18" transform="rotate(-180 18 18)" fill="#00B9AC"/>
<path d="M18 20.6449C21.6155 20.6449 24.6666 21.2324 24.6666 23.4991C24.6666 25.7666 21.5955 26.3333 18 26.3333C14.3853 26.3333 11.3333 25.7458 11.3333 23.4791C11.3333 21.2116 14.4045 20.6449 18 20.6449ZM18 9.66663C20.4492 9.66663 22.4116 11.6283 22.4116 14.0758C22.4116 16.5234 20.4492 18.4859 18 18.4859C15.5516 18.4859 13.5883 16.5234 13.5883 14.0758C13.5883 11.6283 15.5516 9.66663 18 9.66663Z" fill="white"/>
</svg>
