<svg width="21" height="21" viewBox="0 0 21 21" fill="none" xmlns="http://www.w3.org/2000/svg">
<path fill-rule="evenodd" clip-rule="evenodd" d="M11.2612 0C5.89118 0 1.52318 4.368 1.52318 9.738C1.52318 12.2715 2.49546 14.5823 4.08653 16.3165L0.955782 19.4407C0.662783 19.7337 0.661783 20.2077 0.954782 20.5007C1.10078 20.6487 1.29378 20.7217 1.48578 20.7217C1.67678 20.7217 1.86878 20.6487 2.01578 20.5027L5.18432 17.343C6.85111 18.6778 8.96451 19.477 11.2612 19.477C16.6312 19.477 21.0002 15.108 21.0002 9.738C21.0002 4.368 16.6312 0 11.2612 0ZM11.2612 1.5C15.8042 1.5 19.5002 5.195 19.5002 9.738C19.5002 14.281 15.8042 17.977 11.2612 17.977C6.71918 17.977 3.02318 14.281 3.02318 9.738C3.02318 5.195 6.71918 1.5 11.2612 1.5Z" fill="#00B9AC"/>
</svg>
