<svg width="51" height="50" viewBox="0 0 51 50" fill="none" xmlns="http://www.w3.org/2000/svg">
<circle cx="25.97" cy="25" r="25" fill="#00B9AC"/>
<path d="M25.5292 10C33.8125 10 40.0834 16.9855 40.0834 24.9775C40.0834 34.2464 32.7334 40 25.5 40C23.1084 40 20.4542 39.339 18.325 38.0471C17.5813 37.5814 16.9542 37.2359 16.1521 37.5063L13.2063 38.4076C12.4625 38.648 11.7917 38.0471 12.0104 37.2359L12.9875 33.8708C13.1479 33.4051 13.1188 32.9094 12.8854 32.5188C11.6313 30.1452 10.9167 27.5463 10.9167 25.0225C10.9167 17.1207 17.0563 10 25.5292 10ZM32.1938 23.1147C31.1584 23.1147 30.3271 23.971 30.3271 25.0376C30.3271 26.0891 31.1584 26.9604 32.1938 26.9604C33.2292 26.9604 34.0604 26.0891 34.0604 25.0376C34.0604 23.971 33.2292 23.1147 32.1938 23.1147ZM25.4709 23.1147C24.45 23.0997 23.6042 23.971 23.6042 25.0225C23.6042 26.0891 24.4354 26.9454 25.4709 26.9604C26.5063 26.9604 27.3375 26.0891 27.3375 25.0376C27.3375 23.971 26.5063 23.1147 25.4709 23.1147ZM18.7479 23.1147C17.7125 23.1147 16.8813 23.971 16.8813 25.0376C16.8813 26.0891 17.7271 26.9604 18.7479 26.9604C19.7834 26.9454 20.6146 26.0891 20.6146 25.0376C20.6146 23.971 19.7834 23.1147 18.7479 23.1147Z" fill="white"/>
</svg>
