<svg width="50" height="50" viewBox="0 0 50 50" fill="none" xmlns="http://www.w3.org/2000/svg">
<circle cx="24.6666" cy="24.6666" r="23.3333" fill="#00B9AC"/>
<path d="M32.4338 14.0836L35.7867 11.6089C32.8402 9.2358 29.081 7.8125 24.9831 7.8125C20.5641 7.82106 16.5147 9.49178 13.4683 12.2526C9.99383 15.3929 7.8296 19.9724 7.8125 24.9996C7.82106 29.4233 9.50667 33.462 12.2651 36.5115C15.4148 40.0032 19.9369 42.1875 24.9831 42.1875C29.4111 42.1789 33.4832 40.5172 36.5317 37.7463C39.9861 34.6274 42.1875 30.0508 42.1875 24.9996C42.1875 23.9487 42.0859 22.9317 41.9166 21.9146L38.2251 24.6606C38.2251 28.3015 36.9327 31.7673 34.3269 34.3522C31.9562 36.7931 28.6407 38.2204 24.9831 38.2204C21.5381 38.2204 18.1112 36.8068 15.6561 34.3356C13.2516 31.9626 11.775 28.6606 11.775 24.9993C11.775 21.5528 13.2076 18.1322 15.6696 15.6774C18.0402 13.2705 21.3592 11.7788 24.983 11.7788C27.5712 11.7788 30.2391 12.56 32.4338 14.0836Z" fill="white"/>
<path d="M40.6635 17.9143C40.0878 16.6938 39.4105 15.5412 38.5977 14.4903L24.9831 24.9393L18.75 20.2906V24.9828L24.983 29.675L40.6635 17.9143Z" fill="white"/>
</svg>
