<svg width="36" height="36" viewBox="0 0 36 36" fill="none" xmlns="http://www.w3.org/2000/svg">
<circle cx="18" cy="18" r="18" transform="rotate(-180 18 18)" fill="#00B9AC"/>
<path d="M24.0586 24.0889C24.4065 23.7433 24.9641 23.7433 25.312 24.0889L27.6112 25.9448H27.6511C28.1163 26.4149 28.1163 27.1772 27.6511 27.6474C27.186 28.1175 26.4318 28.1175 25.9667 27.6474L24.0586 25.4606L23.9862 25.3789C23.8514 25.2082 23.7769 24.9954 23.7769 24.7747C23.7769 24.5173 23.8783 24.2705 24.0586 24.0889ZM17.7199 10C19.7673 10 21.7309 10.8221 23.1787 12.2854C24.6264 13.7488 25.4398 15.7335 25.4398 17.8029C25.4398 22.1124 21.9834 25.6059 17.7199 25.6059C13.4563 25.6059 10 22.1124 10 17.8029C10 13.4935 13.4563 10 17.7199 10Z" fill="white"/>
</svg>
