<svg width="25" height="21" viewBox="0 0 25 21" fill="none" xmlns="http://www.w3.org/2000/svg">
<path d="M25 2.81187C24.0703 3.22122 23.0797 3.49256 22.0469 3.62431C23.1094 2.98753 23.9203 1.98688 24.3016 0.780765C23.3109 1.37363 22.2172 1.7924 21.0516 2.02609C20.1109 1.02073 18.7703 0.398071 17.3078 0.398071C14.4703 0.398071 12.1859 2.70992 12.1859 5.54405C12.1859 5.95184 12.2203 6.34395 12.3047 6.71723C8.04375 6.50863 4.27344 4.45871 1.74062 1.33599C1.29844 2.10608 1.03906 2.98753 1.03906 3.93642C1.03906 5.71815 1.95312 7.29754 3.31562 8.21193C2.49219 8.19625 1.68437 7.95628 1 7.57829C1 7.59398 1 7.61437 1 7.63475C1 10.1348 2.77656 12.2114 5.10625 12.6898C4.68906 12.8043 4.23438 12.8592 3.7625 12.8592C3.43438 12.8592 3.10312 12.8403 2.79219 12.7713C3.45625 14.8087 5.34063 16.3065 7.58125 16.3552C5.8375 17.7244 3.62344 18.5494 1.22656 18.5494C0.80625 18.5494 0.403125 18.5306 0 18.4788C2.27031 19.9484 4.96094 20.7875 7.8625 20.7875C17.2937 20.7875 22.45 12.9454 22.45 6.14789C22.45 5.92047 22.4422 5.70089 22.4312 5.48288C23.4484 4.75828 24.3031 3.8533 25 2.81187Z" fill="#979797"/>
</svg>
