<svg width="25" height="15" viewBox="0 0 25 15" fill="none" xmlns="http://www.w3.org/2000/svg">
<path d="M20.7448 8.66774C20.3406 8.15539 20.4562 7.92744 20.7448 7.46947C20.75 7.46424 24.0865 2.83636 24.4302 1.26689L24.4323 1.26585C24.6031 0.693896 24.4323 0.27356 23.6062 0.27356H20.8729C20.1771 0.27356 19.8562 0.634296 19.6844 1.0379C19.6844 1.0379 18.2927 4.38177 16.324 6.54933C15.6885 7.17565 15.3948 7.37641 15.0479 7.37641C14.8771 7.37641 14.6115 7.17565 14.6115 6.6037V1.26585C14.6115 0.579924 14.4167 0.27356 13.8406 0.27356H9.54271C9.10625 0.27356 8.84687 0.593517 8.84687 0.891517C8.84687 1.54189 9.83125 1.69141 9.93333 3.52123V7.49142C9.93333 8.36137 9.77604 8.52135 9.42708 8.52135C8.49792 8.52135 6.24271 5.16389 4.90625 1.32126C4.63646 0.575741 4.37292 0.274605 3.67188 0.274605H0.9375C0.157292 0.274605 0 0.635341 0 1.03895C0 1.75206 0.929166 5.29773 4.32083 9.98207C6.58125 13.1796 9.76458 14.9121 12.6604 14.9121C14.401 14.9121 14.6135 14.5274 14.6135 13.8655C14.6135 10.8102 14.4562 10.5216 15.3281 10.5216C15.7323 10.5216 16.4281 10.7224 18.0531 12.2646C19.9104 14.0934 20.2156 14.9121 21.2552 14.9121H23.9885C24.7677 14.9121 25.1625 14.5274 24.9354 13.7682C24.4156 12.1716 20.9031 8.88732 20.7448 8.66774Z" fill="#979797"/>
</svg>
